<?xml version="1.0" encoding="UTF-8"?><svg id="Layer_2" xmlns="http://www.w3.org/2000/svg" viewBox="0 0 218.7228 234.5967"><g id="Components"><g id="dc295690-91e3-44c2-88b0-bcf90f024a7d_5"><path d="M182.2739,125.1651c0,40.4478-32.7911,73.2389-73.2389,73.2389s-73.2389-32.7911-73.2389-73.2389V32.2897h122.6063C164.6181,22.73,168.2381,11.7344,168.2381.0007H0v126.4824c0,59.7103,48.4034,108.1136,108.1136,108.1136h2.4979c59.7077,0,108.1111-48.4034,108.1111-108.1136V50.4852c-13.8525,0-25.9502,4.9405-36.4487,12.7052v61.9747Z" style="fill:#fff;"/><path d="M81.7118,137.0135v-55.6559h18.9285c44.8335,0,81.1743-36.3433,81.1743-81.1743l.005-.1833h36.9031v36.9081c-44.8335,0-81.3526,36.3458-81.3526,81.1768v18.9285h-55.6584Z" style="fill:#be5250;"/></g></g></svg>