<?xml version="1.0" encoding="UTF-8"?><svg id="Layer_2" xmlns="http://www.w3.org/2000/svg" viewBox="0 0 1000 158.5689"><g id="Components"><g id="d9a2097d-14b2-4f75-8166-715ba7e6c348_1"><path d="M233.9313,79.0934c0,4.8106.8162,9.202,2.4553,13.176,1.6358,3.9757,3.8247,7.3456,6.5719,10.1166,2.7438,2.7709,5.9644,4.9158,9.6601,6.431,3.694,1.517,7.6545,2.2738,11.8762,2.2738s8.1805-.7568,11.8779-2.2738c3.694-1.5153,6.9418-3.6601,9.7382-6.431,2.7964-2.771,4.9887-6.1409,6.5736-10.1166,1.5832-3.974,2.3756-8.3654,2.3756-13.176,0-4.9124-.7924-9.3072-2.3756-13.176-1.5848-3.8654-3.7772-7.1878-6.5736-9.9605-2.7964-2.7676-6.0442-4.8852-9.7382-6.3496-3.6974-1.4661-7.6562-2.1974-11.8779-2.1974s-8.1822.7313-11.8762,2.1974c-3.6957,1.4644-6.9163,3.582-9.6601,6.3496-2.7472,2.7726-4.9361,6.0951-6.5719,9.9605-1.6392,3.8688-2.4553,8.2636-2.4553,13.176M214.1376,79.2496c0-7.4237,1.3184-14.2179,3.957-20.3893,2.6386-6.1697,6.2563-11.5012,10.8479-15.9995,4.5934-4.4949,9.9231-7.9989,15.9961-10.5086,6.0679-2.5096,12.5889-3.7653,19.5561-3.7653s13.4848,1.2557,19.5578,3.7653c6.0696,2.5096,11.4011,6.0136,15.9961,10.5086,4.5916,4.4983,8.2059,9.8298,10.8462,15.9995,2.6386,6.1714,3.9587,12.9656,3.9587,20.3893,0,7.3219-1.3201,14.0923-3.9587,20.3112-2.6403,6.224-6.2546,11.5844-10.8462,16.0793-4.5951,4.4966-9.9265,7.9989-15.9961,10.5086-6.073,2.5096-12.5889,3.7636-19.5578,3.7636s-13.4882-1.254-19.5561-3.7636c-6.073-2.5096-11.4028-6.0119-15.9961-10.5086-4.5917-4.4949-8.2094-9.8553-10.8479-16.0793-2.6386-6.2189-3.957-12.9893-3.957-20.3112" style="fill:#f7faff;"/><path d="M319.2751,51.8024h18.8434v41.4081c0,6.5888,1.371,11.3468,4.1182,14.2722,2.7421,2.9288,6.7534,4.3914,12.034,4.3914,3.3784,0,6.3869-.599,9.0255-1.802,2.6403-1.2014,4.8547-2.5351,6.6533-3.9995,2.1092-1.6731,3.957-3.5549,5.5402-5.6471v-48.6231h19.0046v76.8551h-16.6274l-2.06-10.1946c-3.2732,3.6618-7.0215,6.4836-11.2416,8.4689-4.2251,1.9853-8.9763,2.9797-14.2518,2.9797-4.5425,0-8.7116-.8094-12.5125-2.4299-3.7992-1.6205-7.0724-3.8671-9.8179-6.745-2.7472-2.8745-4.8852-6.2732-6.4124-10.1929-1.5322-3.9231-2.2958-8.1839-2.2958-12.784v-45.9573Z" style="fill:#f7faff;"/><path d="M445.2501,69.6844h-3.9587c-3.6974,0-6.8637.5243-9.5006,1.5662-2.642,1.047-4.858,2.2517-6.6516,3.6075-2.0057,1.5696-3.6974,3.2953-5.0668,5.1771v48.6231h-19.0013V51.8031h17.4164l1.5849,10.3524c3.0611-3.5532,6.7551-6.2987,11.0838-8.2365,4.3286-1.9327,9.0272-2.8999,14.094-2.8999v18.6653Z" style="fill:#f7faff;"/><path d="M466.1081,75.4866c0,1.8818,1.0283,3.3462,3.0883,4.3914,2.06,1.047,4.646,1.987,7.7614,2.8252,3.112.8365,6.465,1.724,10.0555,2.664,3.5854.9417,6.9384,2.2738,10.0555,4.0012,3.1103,1.724,5.6997,3.9978,7.758,6.823,2.0583,2.8218,3.0883,6.5362,3.0883,11.1364,0,6.9011-2.5894,12.3904-7.7597,16.4679-5.1737,4.0792-12.3513,6.1154-21.5364,6.1154-4.7511,0-9.1053-.7313-13.064-2.194-3.9587-1.4627-7.3643-3.4768-10.215-6.0408-2.849-2.5588-5.0668-5.5656-6.6499-9.017-1.5831-3.4497-2.4298-7.1098-2.5334-10.9786h19.0013c.4208,3.1375,1.9022,5.5673,4.4355,7.293,2.5334,1.724,5.6471,2.5877,9.3428,2.5877,2.9542,0,5.3552-.4429,7.2048-1.3337,1.8445-.8875,2.7709-2.2212,2.7709-3.9978,0-1.4644-1.03-2.5622-3.0883-3.2953-2.0582-.7296-4.6205-1.4355-7.6799-2.1177-3.0645-.6787-6.4124-1.5136-10.0555-2.5096-3.6414-.9927-6.9944-2.4027-10.0555-4.2353-3.0628-1.8275-5.6233-4.2574-7.6816-7.293-2.0582-3.0306-3.0866-6.9537-3.0866-11.7625,0-3.3445.711-6.4565,2.138-9.3326,1.4236-2.8745,3.4564-5.4129,6.0951-7.607,2.6386-2.1957,5.8066-3.9231,9.504-5.1754,3.694-1.2574,7.8106-1.8818,12.3497-1.8818,4.4355,0,8.4469.6787,12.0357,2.0379,3.5872,1.3609,6.6754,3.2936,9.2648,5.8032,2.5843,2.5096,4.6154,5.4893,6.095,8.939,1.4797,3.4514,2.2704,7.3219,2.3756,11.6081h-19.1607c-1.1623-6.6907-4.909-10.0385-11.2433-10.0385-3.0628,0-5.5962.5243-7.6002,1.5679-2.0073,1.047-3.0102,2.5639-3.0102,4.5492" style="fill:#f7faff;"/><path d="M559.6127,47.0983v32.1518h16.1522c6.6499,0,11.6387-1.4355,14.9645-4.3117,3.3275-2.8761,4.9887-6.823,4.9887-11.8423s-1.6612-8.9424-4.9887-11.7642c-3.3258-2.8236-8.3145-4.2336-14.9645-4.2336h-16.1522ZM540.6097,29.8431h35.9476c6.017,0,11.4266.8111,16.2303,2.4316,4.8038,1.6205,8.8949,3.9214,12.2733,6.9011,3.3784,2.9797,5.9644,6.4853,7.7597,10.5086,1.7936,4.0266,2.6946,8.4961,2.6946,13.4119,0,5.0193-.9265,9.594-2.7744,13.7241-1.8462,4.1318-4.4881,7.6341-7.9158,10.5086-3.4344,2.8762-7.5221,5.1245-12.275,6.7433-4.7494,1.6222-10.0809,2.4316-15.9927,2.4316h-16.9447v32.1535h-19.003V29.8431Z" style="fill:#f7faff;"/><path d="M662.6574,69.6844h-3.9587c-3.6974,0-6.8637.5243-9.5006,1.5662-2.642,1.047-4.8581,2.2517-6.6516,3.6075-2.0057,1.5696-3.6974,3.2953-5.0685,5.1771v48.6231h-18.9996V51.8031h17.4164l1.5832,10.3524c3.0628-3.5532,6.7568-6.2987,11.0855-8.2365,4.3286-1.9327,9.0272-2.8999,14.094-2.8999v18.6653Z" style="fill:#f7faff;"/><path d="M667.3359,51.8011h18.9995v76.8568h-18.9995V51.8011ZM666.3856,38.9407c0-2.8252,1.03-5.2551,3.0883-7.293,2.0566-2.0396,4.5102-3.0611,7.3609-3.0611,2.849,0,5.2772,1.0215,7.2829,3.0611,2.004,2.0379,3.0085,4.4678,3.0085,7.293,0,2.8219-1.0045,5.2534-3.0085,7.293-2.0057,2.0396-4.4339,3.0577-7.2829,3.0577-2.8507,0-5.3043-1.0181-7.3609-3.0577-2.0583-2.0396-3.0883-4.4712-3.0883-7.293" style="fill:#f7faff;"/><polygon points="690.8544 51.8024 710.6481 51.8024 731.7093 101.2094 752.7689 51.8024 772.5642 51.8024 739.6268 128.6576 723.7902 128.6576 690.8544 51.8024" style="fill:#f7faff;"/><path d="M826.6192,90.5439c0-3.3445-.5803-6.3241-1.741-8.939-1.164-2.6131-2.72-4.8648-4.6731-6.7466-1.9548-1.8818-4.2744-3.319-6.9673-4.3134-2.6928-.9927-5.569-1.4881-8.6301-1.4881-2.9576,0-5.7557.4955-8.3926,1.4881-2.642.9943-4.9378,2.4316-6.8909,4.3134-1.9548,1.8818-3.4819,4.1335-4.5916,6.7466-1.1081,2.6148-1.6612,5.5945-1.6612,8.939,0,3.2444.5532,6.1714,1.6612,8.7829,1.1097,2.6148,2.6369,4.8632,4.5916,6.745,1.9531,1.8818,4.2489,3.3207,6.8909,4.3134,2.6369.9944,5.435,1.4898,8.3926,1.4898,3.0611,0,5.9373-.4955,8.6301-1.4898,2.6929-.9927,5.0125-2.4316,6.9673-4.3134,1.9531-1.8818,3.5091-4.1301,4.6731-6.745,1.1606-2.6114,1.741-5.5385,1.741-8.7829M826.7787,119.8756c-3.2732,3.3462-6.9961,5.8558-11.1652,7.5289-4.1726,1.6697-8.5267,2.5079-13.0657,2.5079-5.2789,0-10.2405-.9672-14.8847-2.9016-4.6477-1.9327-8.6845-4.651-12.1138-8.1567-3.4327-3.5006-6.1239-7.6579-8.0769-12.4701-1.9548-4.8072-2.9305-10.0877-2.9305-15.84,0-5.7489.9757-11.0583,2.9305-15.9198,1.9531-4.8615,4.6443-9.0442,8.0769-12.5482,3.4293-3.5023,7.4661-6.2189,12.1138-8.1567,4.6443-1.9327,9.6059-2.8999,14.8847-2.8999,4.539,0,8.8694.8365,12.9859,2.5096,4.1182,1.6714,7.8123,4.1318,11.0855,7.3711v-9.0985h19.003v76.8568h-17.4198l-1.4236-8.7829Z" style="fill:#f7faff;"/><path d="M908.8912,84.1137c-1.1623-4.6001-3.4582-8.2076-6.8875-10.8242-3.4326-2.6097-7.5221-3.9197-12.2732-3.9197-2.9576,0-5.7268.4989-8.3146,1.4898-2.5876.9961-4.8292,2.4061-6.7297,4.2336-1.9005,1.8326-3.4055,4.0283-4.5136,6.5888-1.1081,2.5639-1.6629,5.4655-1.6629,8.7048,0,3.2427.5549,6.1714,1.6629,8.7846,1.1081,2.6148,2.6131,4.8377,4.5136,6.6652,1.9005,1.8292,4.1421,3.2427,6.7297,4.2353,2.5877.996,5.357,1.4898,8.3146,1.4898,4.8547,0,9.0001-1.3337,12.4311-3.9995,3.4277-2.6657,5.7795-6.4039,7.047-11.2161h19.1607c-.4226,5.0193-1.741,9.5685-3.9587,13.646-2.216,4.0792-5.0668,7.6086-8.5521,10.5883-3.4819,2.9814-7.4696,5.2806-11.956,6.9011-4.4882,1.6205-9.2122,2.4299-14.172,2.4299-5.491,0-10.6884-.9672-15.5991-2.8999-4.909-1.9327-9.1613-4.6527-12.7467-8.1567-3.5905-3.5023-6.4412-7.6579-8.5521-12.4701-2.1126-4.8072-3.168-10.0877-3.168-15.84,0-5.7489,1.0554-11.06,3.168-15.9215,2.1109-4.8615,4.9615-9.0425,8.5521-12.5482,3.5854-3.5023,7.8378-6.2172,12.7467-8.155,4.9106-1.9344,10.108-2.9016,15.5991-2.9016,5.0685,0,9.8433.8382,14.3315,2.5096,4.4864,1.6731,8.4435,3.9469,11.8762,6.823,3.4293,2.8778,6.2274,6.3275,8.3942,10.3524,2.1619,4.0266,3.4548,8.3909,3.8808,13.0962l-19.322.3139Z" style="fill:#f7faff;"/><polygon points="980.2046 51.8021 961.5189 102.7804 942.8333 51.8021 923.0379 51.8021 951.6993 129.7568 941.5658 156.8944 961.3612 156.8944 1000 51.8021 980.2046 51.8021" style="fill:#f7faff;"/><path d="M123.2027,84.6017c0,27.3395-22.1642,49.5037-49.5037,49.5037s-49.5037-22.1642-49.5037-49.5037V21.8253h82.8722C111.2688,15.3637,113.7157,7.9316,113.7157.0005H0v85.4921c0,40.3594,32.7168,73.0763,73.0763,73.0763h1.6884c40.3577,0,73.0746-32.7168,73.0746-73.0763v-51.3685c-9.3632,0-17.5403,3.3394-24.6365,8.5877v41.89Z" style="fill:#be5250;"/><path d="M55.2307,92.6103v-37.619h12.7942c30.3039,0,54.8674-24.5652,54.8674-54.8674l.0034-.1239h24.9436v24.947c-30.3039,0-54.9879,24.5669-54.9879,54.8691v12.7942h-37.6207Z" style="fill:#f7faff;"/></g></g></svg>